<svg xmlns="http://www.w3.org/2000/svg" viewBox="0 0 400 533" width="400" height="533">
  <defs>
    <!-- Background gradient - deep warm dark -->
    <radialGradient id="bgGrad1" cx="65%" cy="30%" r="75%">
      <stop offset="0%" stop-color="#2e1208"/>
      <stop offset="50%" stop-color="#150709"/>
      <stop offset="100%" stop-color="#080308"/>
    </radialGradient>
    <!-- Infinity ribbon gradient -->
    <linearGradient id="infGrad1" x1="0%" y1="0%" x2="100%" y2="50%">
      <stop offset="0%" stop-color="#7a3410"/>
      <stop offset="30%" stop-color="#c86020"/>
      <stop offset="60%" stop-color="#e89040"/>
      <stop offset="85%" stop-color="#f4b860"/>
      <stop offset="100%" stop-color="#daa030"/>
    </linearGradient>
    <!-- Glow filter -->
    <filter id="glow1" x="-30%" y="-30%" width="160%" height="160%">
      <feGaussianBlur stdDeviation="4" result="coloredBlur"/>
      <feMerge>
        <feMergeNode in="coloredBlur"/>
        <feMergeNode in="SourceGraphic"/>
      </feMerge>
    </filter>
    <!-- Soft glow for particles -->
    <filter id="softGlow" x="-20%" y="-20%" width="140%" height="140%">
      <feGaussianBlur stdDeviation="2" result="coloredBlur"/>
      <feMerge>
        <feMergeNode in="coloredBlur"/>
        <feMergeNode in="SourceGraphic"/>
      </feMerge>
    </filter>
    <!-- Face silhouette clip path — right-facing human profile -->
    <clipPath id="faceClip1">
      <path d="M238,62 C255,58 278,68 292,85 C306,102 312,122 310,142 C318,152 322,165 318,180 C326,192 324,208 314,220 C318,234 314,250 302,262 C292,272 278,278 264,282 C260,292 256,302 250,310 C244,316 237,318 231,314 C226,310 224,302 227,294 C217,284 210,272 210,260 C200,250 196,236 200,224 C193,212 191,198 196,186 C190,174 190,160 196,148 C192,132 196,116 206,104 C216,88 226,66 238,62 Z"/>
    </clipPath>
  </defs>

  <!-- Background -->
  <rect width="400" height="533" fill="url(#bgGrad1)"/>

  <!-- Atmospheric warm glow behind face area -->
  <ellipse cx="272" cy="185" rx="110" ry="145" fill="#7a2808" opacity="0.22"/>
  <ellipse cx="265" cy="180" rx="70" ry="95" fill="#b04010" opacity="0.12"/>

  <!-- === FACE PARTICLES === -->
  <!-- Dense particle grid clipped to face shape -->
  <g clip-path="url(#faceClip1)" filter="url(#softGlow)">
    <!-- Row by row dot grid, varying opacity/size for organic feel -->
    <!-- Row 1 - forehead top -->
    <circle cx="240" cy="72" r="1.2" fill="#f4a840" opacity="0.5"/>
    <circle cx="252" cy="70" r="1.5" fill="#e89030" opacity="0.6"/>
    <circle cx="264" cy="72" r="1.2" fill="#f4b850" opacity="0.5"/>
    <circle cx="276" cy="76" r="1.0" fill="#e08020" opacity="0.55"/>
    <circle cx="286" cy="82" r="1.3" fill="#f4a840" opacity="0.45"/>
    <!-- Row 2 -->
    <circle cx="234" cy="84" r="1.4" fill="#e89030" opacity="0.6"/>
    <circle cx="246" cy="82" r="1.6" fill="#f4c060" opacity="0.65"/>
    <circle cx="258" cy="80" r="1.3" fill="#e8a040" opacity="0.7"/>
    <circle cx="270" cy="80" r="1.5" fill="#f4b850" opacity="0.65"/>
    <circle cx="282" cy="83" r="1.2" fill="#e09030" opacity="0.6"/>
    <circle cx="292" cy="89" r="1.0" fill="#f4a840" opacity="0.5"/>
    <!-- Row 3 -->
    <circle cx="228" cy="95" r="1.5" fill="#f4b050" opacity="0.65"/>
    <circle cx="240" cy="92" r="1.7" fill="#e8a040" opacity="0.75"/>
    <circle cx="252" cy="90" r="1.8" fill="#f4c060" opacity="0.80"/>
    <circle cx="264" cy="89" r="1.6" fill="#f4b850" opacity="0.78"/>
    <circle cx="276" cy="89" r="1.5" fill="#e8a040" opacity="0.72"/>
    <circle cx="288" cy="92" r="1.3" fill="#f4a840" opacity="0.65"/>
    <circle cx="298" cy="97" r="1.1" fill="#e09030" opacity="0.55"/>
    <!-- Row 4 -->
    <circle cx="224" cy="107" r="1.4" fill="#e89030" opacity="0.65"/>
    <circle cx="236" cy="103" r="1.8" fill="#f4b050" opacity="0.78"/>
    <circle cx="248" cy="101" r="2.0" fill="#f4c060" opacity="0.85"/>
    <circle cx="260" cy="100" r="1.9" fill="#f0b850" opacity="0.88"/>
    <circle cx="272" cy="100" r="1.7" fill="#e8a840" opacity="0.82"/>
    <circle cx="284" cy="102" r="1.5" fill="#f4a840" opacity="0.75"/>
    <circle cx="295" cy="106" r="1.3" fill="#e09030" opacity="0.65"/>
    <circle cx="304" cy="113" r="1.0" fill="#d88020" opacity="0.55"/>
    <!-- Row 5 -->
    <circle cx="220" cy="119" r="1.5" fill="#e89030" opacity="0.68"/>
    <circle cx="232" cy="115" r="1.9" fill="#f4b050" opacity="0.80"/>
    <circle cx="244" cy="113" r="2.1" fill="#f4c060" opacity="0.88"/>
    <circle cx="256" cy="112" r="2.0" fill="#f0b850" opacity="0.90"/>
    <circle cx="268" cy="112" r="1.9" fill="#e8a840" opacity="0.85"/>
    <circle cx="280" cy="113" r="1.7" fill="#f4a840" opacity="0.78"/>
    <circle cx="292" cy="116" r="1.4" fill="#e09030" opacity="0.68"/>
    <circle cx="302" cy="121" r="1.2" fill="#d88020" opacity="0.58"/>
    <circle cx="310" cy="128" r="1.0" fill="#d07818" opacity="0.48"/>
    <!-- Row 6 - eye area highlight -->
    <circle cx="218" cy="131" r="1.5" fill="#e89030" opacity="0.68"/>
    <circle cx="230" cy="127" r="2.0" fill="#f4b050" opacity="0.80"/>
    <circle cx="242" cy="125" r="2.2" fill="#f8c870" opacity="0.90"/>
    <circle cx="254" cy="124" r="2.1" fill="#f8d080" opacity="0.93"/>
    <circle cx="266" cy="124" r="2.0" fill="#f4c060" opacity="0.90"/>
    <circle cx="278" cy="125" r="1.8" fill="#e8a840" opacity="0.82"/>
    <circle cx="290" cy="127" r="1.5" fill="#f4a840" opacity="0.72"/>
    <circle cx="302" cy="130" r="1.3" fill="#e09030" opacity="0.62"/>
    <circle cx="312" cy="136" r="1.0" fill="#d07818" opacity="0.50"/>
    <!-- Row 7 -->
    <circle cx="216" cy="143" r="1.6" fill="#e89030" opacity="0.70"/>
    <circle cx="228" cy="139" r="2.0" fill="#f4b050" opacity="0.82"/>
    <circle cx="240" cy="137" r="2.2" fill="#f4c060" opacity="0.88"/>
    <circle cx="252" cy="136" r="2.1" fill="#f0b850" opacity="0.88"/>
    <circle cx="264" cy="136" r="2.0" fill="#e8a840" opacity="0.85"/>
    <circle cx="276" cy="137" r="1.8" fill="#f4a840" opacity="0.78"/>
    <circle cx="288" cy="139" r="1.5" fill="#e09030" opacity="0.68"/>
    <circle cx="300" cy="143" r="1.3" fill="#d88020" opacity="0.58"/>
    <circle cx="312" cy="148" r="1.0" fill="#d07818" opacity="0.48"/>
    <!-- Row 8 - cheek area -->
    <circle cx="215" cy="155" r="1.6" fill="#e89030" opacity="0.70"/>
    <circle cx="227" cy="151" r="2.0" fill="#f4b050" opacity="0.80"/>
    <circle cx="239" cy="149" r="2.2" fill="#f4c060" opacity="0.86"/>
    <circle cx="251" cy="148" r="2.1" fill="#f0b850" opacity="0.86"/>
    <circle cx="263" cy="148" r="2.0" fill="#e8a840" opacity="0.82"/>
    <circle cx="275" cy="149" r="1.8" fill="#f4a840" opacity="0.76"/>
    <circle cx="287" cy="151" r="1.5" fill="#e09030" opacity="0.66"/>
    <circle cx="299" cy="155" r="1.3" fill="#d88020" opacity="0.56"/>
    <circle cx="312" cy="161" r="1.0" fill="#c87018" opacity="0.44"/>
    <!-- Row 9 -->
    <circle cx="216" cy="167" r="1.6" fill="#e89030" opacity="0.68"/>
    <circle cx="228" cy="163" r="2.0" fill="#f4b050" opacity="0.78"/>
    <circle cx="240" cy="161" r="2.2" fill="#f4c060" opacity="0.84"/>
    <circle cx="252" cy="160" r="2.1" fill="#f0b850" opacity="0.84"/>
    <circle cx="264" cy="160" r="2.0" fill="#e8a840" opacity="0.80"/>
    <circle cx="276" cy="161" r="1.8" fill="#f4a840" opacity="0.74"/>
    <circle cx="288" cy="163" r="1.5" fill="#e09030" opacity="0.64"/>
    <circle cx="300" cy="167" r="1.3" fill="#d88020" opacity="0.54"/>
    <circle cx="313" cy="174" r="1.0" fill="#c87018" opacity="0.42"/>
    <!-- Row 10 -->
    <circle cx="218" cy="179" r="1.5" fill="#e89030" opacity="0.65"/>
    <circle cx="230" cy="175" r="1.9" fill="#f4b050" opacity="0.75"/>
    <circle cx="242" cy="173" r="2.1" fill="#f4c060" opacity="0.82"/>
    <circle cx="254" cy="172" r="2.0" fill="#f0b850" opacity="0.82"/>
    <circle cx="266" cy="172" r="1.9" fill="#e8a840" opacity="0.78"/>
    <circle cx="278" cy="173" r="1.7" fill="#f4a840" opacity="0.72"/>
    <circle cx="290" cy="175" r="1.4" fill="#e09030" opacity="0.62"/>
    <circle cx="302" cy="179" r="1.2" fill="#d88020" opacity="0.52"/>
    <circle cx="314" cy="187" r="0.9" fill="#c87018" opacity="0.38"/>
    <!-- Row 11 - nose area -->
    <circle cx="220" cy="191" r="1.5" fill="#e89030" opacity="0.62"/>
    <circle cx="232" cy="187" r="1.8" fill="#f4b050" opacity="0.72"/>
    <circle cx="244" cy="185" r="2.0" fill="#f4c060" opacity="0.78"/>
    <circle cx="256" cy="184" r="1.9" fill="#f0b850" opacity="0.78"/>
    <circle cx="268" cy="184" r="1.8" fill="#e8a840" opacity="0.74"/>
    <circle cx="280" cy="186" r="1.6" fill="#f4a840" opacity="0.68"/>
    <circle cx="292" cy="189" r="1.3" fill="#e09030" opacity="0.58"/>
    <circle cx="304" cy="194" r="1.1" fill="#d88020" opacity="0.48"/>
    <circle cx="315" cy="202" r="0.8" fill="#c87018" opacity="0.35"/>
    <!-- Row 12 -->
    <circle cx="222" cy="203" r="1.4" fill="#e89030" opacity="0.58"/>
    <circle cx="234" cy="199" r="1.7" fill="#f4b050" opacity="0.68"/>
    <circle cx="246" cy="197" r="1.9" fill="#f4c060" opacity="0.74"/>
    <circle cx="258" cy="196" r="1.8" fill="#f0b850" opacity="0.74"/>
    <circle cx="270" cy="196" r="1.7" fill="#e8a840" opacity="0.70"/>
    <circle cx="282" cy="197" r="1.5" fill="#f4a840" opacity="0.64"/>
    <circle cx="294" cy="200" r="1.2" fill="#e09030" opacity="0.54"/>
    <circle cx="306" cy="205" r="1.0" fill="#d88020" opacity="0.44"/>
    <!-- Row 13 - lower face -->
    <circle cx="224" cy="215" r="1.3" fill="#e89030" opacity="0.54"/>
    <circle cx="236" cy="211" r="1.6" fill="#f4b050" opacity="0.62"/>
    <circle cx="248" cy="209" r="1.8" fill="#f4c060" opacity="0.68"/>
    <circle cx="260" cy="208" r="1.7" fill="#f0b850" opacity="0.68"/>
    <circle cx="272" cy="208" r="1.6" fill="#e8a840" opacity="0.64"/>
    <circle cx="284" cy="209" r="1.4" fill="#f4a840" opacity="0.58"/>
    <circle cx="296" cy="212" r="1.1" fill="#e09030" opacity="0.48"/>
    <circle cx="308" cy="217" r="0.9" fill="#d88020" opacity="0.38"/>
    <!-- Row 14 -->
    <circle cx="226" cy="227" r="1.2" fill="#e89030" opacity="0.50"/>
    <circle cx="238" cy="223" r="1.5" fill="#f4b050" opacity="0.58"/>
    <circle cx="250" cy="221" r="1.7" fill="#f4c060" opacity="0.62"/>
    <circle cx="262" cy="220" r="1.6" fill="#f0b850" opacity="0.62"/>
    <circle cx="274" cy="220" r="1.5" fill="#e8a840" opacity="0.58"/>
    <circle cx="286" cy="221" r="1.3" fill="#f4a840" opacity="0.52"/>
    <circle cx="298" cy="224" r="1.0" fill="#e09030" opacity="0.42"/>
    <!-- Row 15 - chin area -->
    <circle cx="228" cy="239" r="1.2" fill="#e89030" opacity="0.45"/>
    <circle cx="240" cy="235" r="1.4" fill="#f4b050" opacity="0.52"/>
    <circle cx="252" cy="233" r="1.6" fill="#f4c060" opacity="0.56"/>
    <circle cx="264" cy="232" r="1.5" fill="#f0b850" opacity="0.56"/>
    <circle cx="276" cy="232" r="1.4" fill="#e8a840" opacity="0.52"/>
    <circle cx="288" cy="234" r="1.2" fill="#f4a840" opacity="0.46"/>
    <circle cx="300" cy="237" r="0.9" fill="#e09030" opacity="0.36"/>
    <!-- Row 16 -->
    <circle cx="230" cy="251" r="1.1" fill="#e89030" opacity="0.40"/>
    <circle cx="242" cy="248" r="1.3" fill="#f4b050" opacity="0.46"/>
    <circle cx="254" cy="246" r="1.4" fill="#f4c060" opacity="0.50"/>
    <circle cx="266" cy="245" r="1.3" fill="#f0b850" opacity="0.50"/>
    <circle cx="278" cy="246" r="1.2" fill="#e8a840" opacity="0.46"/>
    <circle cx="290" cy="249" r="1.0" fill="#f4a840" opacity="0.38"/>
    <!-- Row 17 - chin/jaw -->
    <circle cx="232" cy="263" r="1.0" fill="#e89030" opacity="0.35"/>
    <circle cx="244" cy="260" r="1.2" fill="#f4b050" opacity="0.40"/>
    <circle cx="256" cy="259" r="1.3" fill="#f4c060" opacity="0.44"/>
    <circle cx="268" cy="259" r="1.2" fill="#f0b850" opacity="0.44"/>
    <circle cx="280" cy="260" r="1.1" fill="#e8a840" opacity="0.38"/>
    <!-- Row 18 -->
    <circle cx="234" cy="274" r="0.9" fill="#e89030" opacity="0.28"/>
    <circle cx="246" cy="271" r="1.1" fill="#f4b050" opacity="0.32"/>
    <circle cx="258" cy="270" r="1.2" fill="#f4c060" opacity="0.36"/>
    <circle cx="270" cy="271" r="1.1" fill="#e8a840" opacity="0.32"/>
    <!-- Row 19 - bottom fade -->
    <circle cx="236" cy="284" r="0.8" fill="#e89030" opacity="0.20"/>
    <circle cx="248" cy="281" r="0.9" fill="#f4b050" opacity="0.24"/>
    <circle cx="260" cy="280" r="1.0" fill="#f4c060" opacity="0.26"/>
    <circle cx="272" cy="281" r="0.9" fill="#e8a840" opacity="0.22"/>
    <!-- Row 20 -->
    <circle cx="238" cy="293" r="0.7" fill="#e89030" opacity="0.14"/>
    <circle cx="250" cy="291" r="0.8" fill="#f4b050" opacity="0.16"/>
    <circle cx="262" cy="291" r="0.9" fill="#f4c060" opacity="0.18"/>
  </g>

  <!-- Scattered particles floating outside face (dispersion effect) -->
  <g opacity="0.6">
    <circle cx="215" cy="65" r="0.8" fill="#f4a840" opacity="0.5"/>
    <circle cx="305" cy="55" r="1.0" fill="#e89030" opacity="0.4"/>
    <circle cx="318" cy="80" r="0.7" fill="#f4b050" opacity="0.35"/>
    <circle cx="325" cy="105" r="0.8" fill="#f4a840" opacity="0.3"/>
    <circle cx="330" cy="130" r="0.6" fill="#e89030" opacity="0.25"/>
    <circle cx="328" cy="160" r="0.5" fill="#f4b050" opacity="0.2"/>
    <circle cx="320" cy="55" r="0.6" fill="#f4c060" opacity="0.4"/>
    <circle cx="335" cy="72" r="0.5" fill="#f4a840" opacity="0.3"/>
    <circle cx="298" cy="45" r="0.7" fill="#e89030" opacity="0.35"/>
    <circle cx="280" cy="42" r="0.6" fill="#f4b050" opacity="0.30"/>
    <circle cx="260" cy="44" r="0.5" fill="#f4a840" opacity="0.25"/>
    <circle cx="338" cy="95" r="0.4" fill="#f4c060" opacity="0.25"/>
    <circle cx="342" cy="118" r="0.5" fill="#e89030" opacity="0.20"/>
    <!-- Small accent dots — pink/magenta hints like reference image 1 -->
    <circle cx="310" cy="62" r="1.2" fill="#d060a0" opacity="0.4"/>
    <circle cx="335" cy="88" r="0.8" fill="#c050a0" opacity="0.30"/>
    <circle cx="195" cy="70" r="0.9" fill="#e070b0" opacity="0.35"/>
    <circle cx="200" cy="88" r="0.7" fill="#d060a0" opacity="0.28"/>
    <circle cx="325" cy="142" r="0.6" fill="#c050a0" opacity="0.22"/>
  </g>

  <!-- === INFINITY SYMBOL === -->
  <!-- Shadow/glow behind infinity -->
  <path d="M185,265 C200,232 245,230 258,265 C271,300 316,302 330,265 C316,228 271,230 258,265 C245,300 200,302 185,265 Z"
        fill="#c87020" opacity="0.18" filter="url(#glow1)"/>
  <!-- Main infinity stroke -->
  <path d="M185,265 C200,232 248,228 260,265 C272,302 320,298 332,265 C320,232 272,228 260,265 C248,302 200,298 185,265"
        fill="none" stroke="url(#infGrad1)" stroke-width="22" stroke-linecap="round" stroke-linejoin="round" filter="url(#glow1)"/>
  <!-- Inner highlight on infinity -->
  <path d="M190,263 C204,238 248,236 259,263 C270,290 314,292 326,263 C314,238 270,236 259,263 C248,290 204,290 190,263"
        fill="none" stroke="#f4d090" stroke-width="4" stroke-linecap="round" opacity="0.35"/>

  <!-- === TEXT === -->
  <!-- "vspomin.ai" -->
  <text x="200" y="378" text-anchor="middle" font-family="Georgia, 'Times New Roman', serif" font-size="44" font-weight="400" letter-spacing="1" fill="#e8a840">vspomin<tspan fill="#f4c860" font-style="italic" letter-spacing="0">.ai</tspan></text>

  <!-- Divider line -->
  <line x1="80" y1="394" x2="320" y2="394" stroke="#7a4820" stroke-width="0.8" opacity="0.6"/>

  <!-- Tagline -->
  <text x="200" y="418" text-anchor="middle" font-family="Georgia, 'Times New Roman', serif" font-size="15" letter-spacing="4" fill="#c8946a" opacity="0.85">твоя память. навсегда.</text>
</svg>
