<svg xmlns="http://www.w3.org/2000/svg" viewBox="0 0 400 533" width="400" height="533">
  <defs>
    <!-- Pure black background -->
    <linearGradient id="bgGrad2" x1="0%" y1="0%" x2="100%" y2="100%">
      <stop offset="0%" stop-color="#0d0c0a"/>
      <stop offset="100%" stop-color="#050504"/>
    </linearGradient>
    <!-- Monochrome warm gold infinity gradient -->
    <linearGradient id="infGrad2" x1="0%" y1="0%" x2="100%" y2="50%">
      <stop offset="0%" stop-color="#6b5520"/>
      <stop offset="30%" stop-color="#a88030"/>
      <stop offset="60%" stop-color="#c9a040"/>
      <stop offset="80%" stop-color="#d4b058"/>
      <stop offset="100%" stop-color="#b89038"/>
    </linearGradient>
    <!-- Subtle glow filter -->
    <filter id="glow2" x="-25%" y="-25%" width="150%" height="150%">
      <feGaussianBlur stdDeviation="3" result="coloredBlur"/>
      <feMerge>
        <feMergeNode in="coloredBlur"/>
        <feMergeNode in="SourceGraphic"/>
      </feMerge>
    </filter>
    <!-- Face silhouette clip path — same profile -->
    <clipPath id="faceClip2">
      <path d="M238,62 C255,58 278,68 292,85 C306,102 312,122 310,142 C318,152 322,165 318,180 C326,192 324,208 314,220 C318,234 314,250 302,262 C292,272 278,278 264,282 C260,292 256,302 250,310 C244,316 237,318 231,314 C226,310 224,302 227,294 C217,284 210,272 210,260 C200,250 196,236 200,224 C193,212 191,198 196,186 C190,174 190,160 196,148 C192,132 196,116 206,104 C216,88 226,66 238,62 Z"/>
    </clipPath>
  </defs>

  <!-- Background -->
  <rect width="400" height="533" fill="url(#bgGrad2)"/>

  <!-- Very subtle warm glow behind face -->
  <ellipse cx="272" cy="185" rx="100" ry="135" fill="#3a2808" opacity="0.15"/>

  <!-- === FACE PARTICLES (monochrome gold tones) === -->
  <g clip-path="url(#faceClip2)">
    <!-- Row 1 - forehead top -->
    <circle cx="240" cy="72" r="1.2" fill="#c9a040" opacity="0.45"/>
    <circle cx="252" cy="70" r="1.5" fill="#d4b058" opacity="0.55"/>
    <circle cx="264" cy="72" r="1.2" fill="#c0943a" opacity="0.50"/>
    <circle cx="276" cy="76" r="1.0" fill="#b88030" opacity="0.48"/>
    <circle cx="286" cy="82" r="1.3" fill="#c9a040" opacity="0.42"/>
    <!-- Row 2 -->
    <circle cx="234" cy="84" r="1.4" fill="#a87828" opacity="0.55"/>
    <circle cx="246" cy="82" r="1.6" fill="#d4b058" opacity="0.62"/>
    <circle cx="258" cy="80" r="1.3" fill="#c9a040" opacity="0.68"/>
    <circle cx="270" cy="80" r="1.5" fill="#d4b058" opacity="0.65"/>
    <circle cx="282" cy="83" r="1.2" fill="#c0943a" opacity="0.58"/>
    <circle cx="292" cy="89" r="1.0" fill="#b88030" opacity="0.48"/>
    <!-- Row 3 -->
    <circle cx="228" cy="95" r="1.5" fill="#c9a040" opacity="0.62"/>
    <circle cx="240" cy="92" r="1.7" fill="#c9a040" opacity="0.72"/>
    <circle cx="252" cy="90" r="1.8" fill="#d4b058" opacity="0.78"/>
    <circle cx="264" cy="89" r="1.6" fill="#d8b860" opacity="0.76"/>
    <circle cx="276" cy="89" r="1.5" fill="#c9a040" opacity="0.70"/>
    <circle cx="288" cy="92" r="1.3" fill="#b88030" opacity="0.62"/>
    <circle cx="298" cy="97" r="1.1" fill="#a87828" opacity="0.52"/>
    <!-- Row 4 -->
    <circle cx="224" cy="107" r="1.4" fill="#a87828" opacity="0.62"/>
    <circle cx="236" cy="103" r="1.8" fill="#c9a040" opacity="0.76"/>
    <circle cx="248" cy="101" r="2.0" fill="#d4b058" opacity="0.84"/>
    <circle cx="260" cy="100" r="1.9" fill="#d8bc64" opacity="0.86"/>
    <circle cx="272" cy="100" r="1.7" fill="#c9a844" opacity="0.80"/>
    <circle cx="284" cy="102" r="1.5" fill="#b88030" opacity="0.72"/>
    <circle cx="295" cy="106" r="1.3" fill="#a87828" opacity="0.62"/>
    <circle cx="304" cy="113" r="1.0" fill="#906820" opacity="0.50"/>
    <!-- Row 5 -->
    <circle cx="220" cy="119" r="1.5" fill="#a87828" opacity="0.65"/>
    <circle cx="232" cy="115" r="1.9" fill="#c9a040" opacity="0.78"/>
    <circle cx="244" cy="113" r="2.1" fill="#d4b058" opacity="0.86"/>
    <circle cx="256" cy="112" r="2.0" fill="#d8bc64" opacity="0.88"/>
    <circle cx="268" cy="112" r="1.9" fill="#c9a844" opacity="0.84"/>
    <circle cx="280" cy="113" r="1.7" fill="#b88030" opacity="0.76"/>
    <circle cx="292" cy="116" r="1.4" fill="#a07020" opacity="0.65"/>
    <circle cx="302" cy="121" r="1.2" fill="#906820" opacity="0.55"/>
    <circle cx="310" cy="128" r="1.0" fill="#806018" opacity="0.45"/>
    <!-- Row 6 - eye area -->
    <circle cx="218" cy="131" r="1.5" fill="#a87828" opacity="0.65"/>
    <circle cx="230" cy="127" r="2.0" fill="#c9a040" opacity="0.78"/>
    <circle cx="242" cy="125" r="2.2" fill="#d8c070" opacity="0.88"/>
    <circle cx="254" cy="124" r="2.1" fill="#e0c878" opacity="0.92"/>
    <circle cx="266" cy="124" r="2.0" fill="#d4b860" opacity="0.88"/>
    <circle cx="278" cy="125" r="1.8" fill="#c9a844" opacity="0.80"/>
    <circle cx="290" cy="127" r="1.5" fill="#b08030" opacity="0.70"/>
    <circle cx="302" cy="130" r="1.3" fill="#906820" opacity="0.60"/>
    <circle cx="312" cy="136" r="1.0" fill="#806018" opacity="0.48"/>
    <!-- Row 7 -->
    <circle cx="216" cy="143" r="1.6" fill="#a87828" opacity="0.68"/>
    <circle cx="228" cy="139" r="2.0" fill="#c9a040" opacity="0.80"/>
    <circle cx="240" cy="137" r="2.2" fill="#d4b058" opacity="0.86"/>
    <circle cx="252" cy="136" r="2.1" fill="#d8bc64" opacity="0.86"/>
    <circle cx="264" cy="136" r="2.0" fill="#c9a844" opacity="0.82"/>
    <circle cx="276" cy="137" r="1.8" fill="#b88030" opacity="0.76"/>
    <circle cx="288" cy="139" r="1.5" fill="#a07020" opacity="0.65"/>
    <circle cx="300" cy="143" r="1.3" fill="#906820" opacity="0.55"/>
    <circle cx="312" cy="148" r="1.0" fill="#806018" opacity="0.44"/>
    <!-- Row 8 -->
    <circle cx="215" cy="155" r="1.6" fill="#a87828" opacity="0.68"/>
    <circle cx="227" cy="151" r="2.0" fill="#c9a040" opacity="0.78"/>
    <circle cx="239" cy="149" r="2.2" fill="#d4b058" opacity="0.84"/>
    <circle cx="251" cy="148" r="2.1" fill="#d8bc64" opacity="0.84"/>
    <circle cx="263" cy="148" r="2.0" fill="#c9a844" opacity="0.80"/>
    <circle cx="275" cy="149" r="1.8" fill="#b88030" opacity="0.74"/>
    <circle cx="287" cy="151" r="1.5" fill="#a07020" opacity="0.63"/>
    <circle cx="299" cy="155" r="1.3" fill="#906820" opacity="0.53"/>
    <circle cx="312" cy="161" r="1.0" fill="#756015" opacity="0.40"/>
    <!-- Row 9 -->
    <circle cx="216" cy="167" r="1.6" fill="#a87828" opacity="0.65"/>
    <circle cx="228" cy="163" r="2.0" fill="#c9a040" opacity="0.76"/>
    <circle cx="240" cy="161" r="2.2" fill="#d4b058" opacity="0.82"/>
    <circle cx="252" cy="160" r="2.1" fill="#d8bc64" opacity="0.82"/>
    <circle cx="264" cy="160" r="2.0" fill="#c9a844" opacity="0.78"/>
    <circle cx="276" cy="161" r="1.8" fill="#b88030" opacity="0.72"/>
    <circle cx="288" cy="163" r="1.5" fill="#a07020" opacity="0.62"/>
    <circle cx="300" cy="167" r="1.3" fill="#906820" opacity="0.52"/>
    <circle cx="313" cy="174" r="1.0" fill="#756015" opacity="0.38"/>
    <!-- Row 10 -->
    <circle cx="218" cy="179" r="1.5" fill="#a87828" opacity="0.62"/>
    <circle cx="230" cy="175" r="1.9" fill="#c9a040" opacity="0.72"/>
    <circle cx="242" cy="173" r="2.1" fill="#d4b058" opacity="0.80"/>
    <circle cx="254" cy="172" r="2.0" fill="#d8bc64" opacity="0.80"/>
    <circle cx="266" cy="172" r="1.9" fill="#c9a844" opacity="0.76"/>
    <circle cx="278" cy="173" r="1.7" fill="#b88030" opacity="0.70"/>
    <circle cx="290" cy="175" r="1.4" fill="#a07020" cy="175" r="1.4" fill="#a07020" opacity="0.60"/>
    <circle cx="302" cy="179" r="1.2" fill="#906820" opacity="0.50"/>
    <!-- Row 11-18 decreasing density -->
    <circle cx="220" cy="191" r="1.5" fill="#a87828" opacity="0.58"/>
    <circle cx="232" cy="187" r="1.8" fill="#c9a040" opacity="0.68"/>
    <circle cx="244" cy="185" r="2.0" fill="#d4b058" opacity="0.76"/>
    <circle cx="256" cy="184" r="1.9" fill="#d8bc64" opacity="0.76"/>
    <circle cx="268" cy="184" r="1.8" fill="#c9a844" opacity="0.72"/>
    <circle cx="280" cy="186" r="1.6" fill="#b88030" opacity="0.65"/>
    <circle cx="292" cy="189" r="1.3" fill="#a07020" opacity="0.55"/>
    <circle cx="222" cy="203" r="1.4" fill="#a07828" opacity="0.54"/>
    <circle cx="234" cy="199" r="1.7" fill="#c9a040" opacity="0.62"/>
    <circle cx="246" cy="197" r="1.9" fill="#d4b058" opacity="0.70"/>
    <circle cx="258" cy="196" r="1.8" fill="#d8bc64" opacity="0.70"/>
    <circle cx="270" cy="196" r="1.7" fill="#c9a844" opacity="0.66"/>
    <circle cx="282" cy="197" r="1.5" fill="#b08030" opacity="0.59"/>
    <circle cx="294" cy="200" r="1.2" fill="#906820" opacity="0.49"/>
    <circle cx="224" cy="215" r="1.3" fill="#a07828" opacity="0.50"/>
    <circle cx="236" cy="211" r="1.6" fill="#c9a040" opacity="0.58"/>
    <circle cx="248" cy="209" r="1.8" fill="#d4b058" opacity="0.65"/>
    <circle cx="260" cy="208" r="1.7" fill="#d8bc64" opacity="0.65"/>
    <circle cx="272" cy="208" r="1.6" fill="#c9a844" opacity="0.61"/>
    <circle cx="284" cy="209" r="1.4" fill="#b08030" opacity="0.55"/>
    <circle cx="226" cy="227" r="1.2" fill="#907020" opacity="0.46"/>
    <circle cx="238" cy="223" r="1.5" fill="#c0983a" opacity="0.53"/>
    <circle cx="250" cy="221" r="1.7" fill="#d0aa50" opacity="0.59"/>
    <circle cx="262" cy="220" r="1.6" fill="#d4b058" opacity="0.59"/>
    <circle cx="274" cy="220" r="1.5" fill="#c0983a" opacity="0.55"/>
    <circle cx="286" cy="221" r="1.3" fill="#a07020" opacity="0.48"/>
    <circle cx="228" cy="239" r="1.2" fill="#907020" opacity="0.40"/>
    <circle cx="240" cy="235" r="1.4" fill="#b88830" opacity="0.48"/>
    <circle cx="252" cy="233" r="1.6" fill="#c9a040" opacity="0.53"/>
    <circle cx="264" cy="232" r="1.5" fill="#d0aa50" opacity="0.53"/>
    <circle cx="276" cy="232" r="1.4" fill="#b88830" opacity="0.48"/>
    <circle cx="288" cy="234" r="1.2" fill="#907020" opacity="0.40"/>
    <circle cx="230" cy="251" r="1.1" fill="#806818" opacity="0.35"/>
    <circle cx="242" cy="248" r="1.3" fill="#a88030" opacity="0.42"/>
    <circle cx="254" cy="246" r="1.4" fill="#c0983a" opacity="0.47"/>
    <circle cx="266" cy="245" r="1.3" fill="#c9a040" opacity="0.47"/>
    <circle cx="278" cy="246" r="1.2" fill="#a88030" opacity="0.42"/>
    <circle cx="232" cy="263" r="1.0" fill="#806818" opacity="0.28"/>
    <circle cx="244" cy="260" r="1.2" fill="#9a7828" opacity="0.34"/>
    <circle cx="256" cy="259" r="1.3" fill="#b08838" opacity="0.39"/>
    <circle cx="268" cy="259" r="1.2" fill="#b88830" opacity="0.39"/>
    <circle cx="280" cy="260" r="1.1" fill="#9a7828" opacity="0.32"/>
    <circle cx="234" cy="274" r="0.9" fill="#706015" opacity="0.22"/>
    <circle cx="246" cy="271" r="1.1" fill="#907022" opacity="0.27"/>
    <circle cx="258" cy="270" r="1.2" fill="#a07828" opacity="0.31"/>
    <circle cx="270" cy="271" r="1.1" fill="#907022" opacity="0.27"/>
    <circle cx="236" cy="284" r="0.8" fill="#706015" opacity="0.16"/>
    <circle cx="248" cy="281" r="0.9" fill="#806818" opacity="0.19"/>
    <circle cx="260" cy="280" r="1.0" fill="#9a7828" opacity="0.22"/>
    <circle cx="272" cy="281" r="0.9" fill="#806818" opacity="0.18"/>
    <circle cx="238" cy="293" r="0.7" fill="#605812" opacity="0.12"/>
    <circle cx="250" cy="291" r="0.8" fill="#706015" opacity="0.14"/>
    <circle cx="262" cy="291" r="0.9" fill="#806818" opacity="0.16"/>
  </g>

  <!-- Scattered particles (no color accent — strictly monochrome warm) -->
  <g>
    <circle cx="215" cy="65" r="0.7" fill="#a88030" opacity="0.40"/>
    <circle cx="305" cy="55" r="0.9" fill="#c9a040" opacity="0.35"/>
    <circle cx="318" cy="80" r="0.6" fill="#b89038" opacity="0.30"/>
    <circle cx="324" cy="105" r="0.7" fill="#a88030" opacity="0.25"/>
    <circle cx="328" cy="130" r="0.5" fill="#907020" opacity="0.22"/>
    <circle cx="320" cy="55" r="0.5" fill="#c0983a" opacity="0.32"/>
    <circle cx="335" cy="72" r="0.4" fill="#b08030" opacity="0.25"/>
    <circle cx="298" cy="45" r="0.6" fill="#c9a040" opacity="0.30"/>
    <circle cx="280" cy="42" r="0.5" fill="#b88830" opacity="0.26"/>
    <circle cx="260" cy="44" r="0.4" fill="#a88030" opacity="0.22"/>
    <circle cx="338" cy="95" r="0.4" fill="#c0983a" opacity="0.20"/>
    <circle cx="342" cy="118" r="0.4" fill="#a88030" opacity="0.16"/>
    <circle cx="345" cy="143" r="0.3" fill="#907020" opacity="0.13"/>
    <circle cx="200" cy="70" r="0.8" fill="#b89038" opacity="0.30"/>
    <circle cx="198" cy="88" r="0.6" fill="#a88030" opacity="0.24"/>
  </g>

  <!-- === INFINITY SYMBOL === -->
  <!-- Glow effect -->
  <path d="M185,265 C200,232 248,228 260,265 C272,302 320,298 332,265 C320,232 272,228 260,265 C248,302 200,298 185,265"
        fill="none" stroke="#a88030" stroke-width="28" stroke-linecap="round" opacity="0.15" filter="url(#glow2)"/>
  <!-- Main infinity stroke -->
  <path d="M185,265 C200,232 248,228 260,265 C272,302 320,298 332,265 C320,232 272,228 260,265 C248,302 200,298 185,265"
        fill="none" stroke="url(#infGrad2)" stroke-width="20" stroke-linecap="round" stroke-linejoin="round" filter="url(#glow2)"/>
  <!-- Inner highlight -->
  <path d="M190,264 C204,240 248,237 260,264 C272,291 316,290 328,264 C316,240 272,237 260,264 C248,291 204,291 190,264"
        fill="none" stroke="#e0cc90" stroke-width="3" stroke-linecap="round" opacity="0.28"/>

  <!-- === TEXT === -->
  <!-- "vspomin.ai" -->
  <text x="200" y="378" text-anchor="middle" font-family="Georgia, 'Times New Roman', serif" font-size="44" font-weight="400" letter-spacing="1" fill="#c9a040">vspomin<tspan fill="#d8bc64" font-style="italic" letter-spacing="0">.ai</tspan></text>

  <!-- Divider -->
  <line x1="80" y1="394" x2="320" y2="394" stroke="#5a4810" stroke-width="0.8" opacity="0.7"/>

  <!-- Tagline -->
  <text x="200" y="418" text-anchor="middle" font-family="Georgia, 'Times New Roman', serif" font-size="15" letter-spacing="4" fill="#907838" opacity="0.80">твоя память. навсегда.</text>
</svg>
