<svg xmlns="http://www.w3.org/2000/svg" viewBox="0 0 400 533" width="400" height="533">
  <defs>
    <linearGradient id="bg" x1="0%" y1="0%" x2="100%" y2="100%">
      <stop offset="0%" stop-color="#0c0c0c"/>
      <stop offset="100%" stop-color="#050505"/>
    </linearGradient>
    <linearGradient id="inf" x1="0%" y1="0%" x2="100%" y2="60%">
      <stop offset="0%" stop-color="#555555"/>
      <stop offset="35%" stop-color="#a0a0a0"/>
      <stop offset="65%" stop-color="#d8d8d8"/>
      <stop offset="100%" stop-color="#ffffff"/>
    </linearGradient>
    <filter id="glow" x="-40%" y="-40%" width="180%" height="180%">
      <feGaussianBlur stdDeviation="5" result="b"/>
      <feMerge><feMergeNode in="b"/><feMergeNode in="SourceGraphic"/></feMerge>
    </filter>
    <filter id="fg" x="-20%" y="-20%" width="140%" height="140%">
      <feGaussianBlur stdDeviation="1.5" result="b"/>
      <feMerge><feMergeNode in="b"/><feMergeNode in="SourceGraphic"/></feMerge>
    </filter>
    <clipPath id="face">
      <path d="M245,55 C268,50 295,63 312,83 C328,103 335,128 332,152 C342,164 346,180 341,197 C350,211 348,230 336,244 C341,260 336,279 321,293 C308,305 291,312 273,317 C268,329 263,341 255,350 C248,357 239,360 232,355 C226,350 224,341 228,332 C215,320 207,306 207,292 C195,280 190,263 194,249 C186,235 184,218 190,204 C183,190 183,173 190,159 C185,141 190,122 202,108 C215,90 228,60 245,55 Z"/>
    </clipPath>
  </defs>

  <rect width="400" height="533" fill="url(#bg)"/>
  <ellipse cx="285" cy="195" rx="120" ry="160" fill="#202020" opacity="0.20"/>

  <!-- Face particles - silver/white tones -->
  <g clip-path="url(#face)" filter="url(#fg)">
    <circle cx="247" cy="65" r="1.3" fill="#c0c0c0" opacity="0.45"/>
    <circle cx="260" cy="62" r="1.6" fill="#e0e0e0" opacity="0.55"/>
    <circle cx="274" cy="63" r="1.3" fill="#b8b8b8" opacity="0.50"/>
    <circle cx="288" cy="67" r="1.1" fill="#a8a8a8" opacity="0.45"/>
    <circle cx="300" cy="74" r="1.2" fill="#c0c0c0" opacity="0.40"/>
    <circle cx="240" cy="77" r="1.5" fill="#b0b0b0" opacity="0.55"/>
    <circle cx="254" cy="74" r="1.8" fill="#d8d8d8" opacity="0.62"/>
    <circle cx="268" cy="72" r="1.9" fill="#f0f0f0" opacity="0.70"/>
    <circle cx="282" cy="72" r="1.7" fill="#e0e0e0" opacity="0.65"/>
    <circle cx="296" cy="75" r="1.4" fill="#c0c0c0" opacity="0.58"/>
    <circle cx="310" cy="81" r="1.1" fill="#a0a0a0" opacity="0.48"/>
    <circle cx="233" cy="90" r="1.6" fill="#b8b8b8" opacity="0.60"/>
    <circle cx="247" cy="87" r="2.0" fill="#d8d8d8" opacity="0.72"/>
    <circle cx="261" cy="85" r="2.2" fill="#f8f8f8" opacity="0.82"/>
    <circle cx="275" cy="84" r="2.1" fill="#f0f0f0" opacity="0.80"/>
    <circle cx="289" cy="84" r="1.9" fill="#e0e0e0" opacity="0.74"/>
    <circle cx="303" cy="86" r="1.6" fill="#c0c0c0" opacity="0.63"/>
    <circle cx="316" cy="91" r="1.2" fill="#a0a0a0" opacity="0.50"/>
    <circle cx="227" cy="103" r="1.6" fill="#b0b0b0" opacity="0.63"/>
    <circle cx="241" cy="100" r="2.0" fill="#d0d0d0" opacity="0.74"/>
    <circle cx="255" cy="98" r="2.3" fill="#f0f0f0" opacity="0.85"/>
    <circle cx="269" cy="97" r="2.2" fill="#fafafa" opacity="0.88"/>
    <circle cx="283" cy="97" r="2.0" fill="#e8e8e8" opacity="0.83"/>
    <circle cx="297" cy="99" r="1.7" fill="#d0d0d0" opacity="0.73"/>
    <circle cx="311" cy="103" r="1.4" fill="#b0b0b0" opacity="0.61"/>
    <circle cx="323" cy="110" r="1.0" fill="#909090" opacity="0.47"/>
    <circle cx="222" cy="116" r="1.6" fill="#b0b0b0" opacity="0.64"/>
    <circle cx="236" cy="112" r="2.0" fill="#d0d0d0" opacity="0.76"/>
    <circle cx="250" cy="110" r="2.3" fill="#f0f0f0" opacity="0.86"/>
    <circle cx="264" cy="109" r="2.2" fill="#fafafa" opacity="0.90"/>
    <circle cx="278" cy="109" r="2.1" fill="#e8e8e8" opacity="0.84"/>
    <circle cx="292" cy="111" r="1.8" fill="#d0d0d0" opacity="0.75"/>
    <circle cx="306" cy="114" r="1.4" fill="#b0b0b0" opacity="0.63"/>
    <circle cx="319" cy="120" r="1.1" fill="#909090" opacity="0.49"/>
    <circle cx="220" cy="129" r="1.6" fill="#b0b0b0" opacity="0.65"/>
    <circle cx="234" cy="125" r="2.1" fill="#d8d8d8" opacity="0.77"/>
    <circle cx="248" cy="123" r="2.4" fill="#f8f8f8" opacity="0.90"/>
    <circle cx="262" cy="122" r="2.3" fill="#ffffff" opacity="0.93"/>
    <circle cx="276" cy="122" r="2.2" fill="#f0f0f0" opacity="0.87"/>
    <circle cx="290" cy="124" r="1.9" fill="#d8d8d8" opacity="0.77"/>
    <circle cx="304" cy="127" r="1.5" fill="#b0b0b0" opacity="0.64"/>
    <circle cx="318" cy="133" r="1.1" fill="#909090" opacity="0.49"/>
    <circle cx="219" cy="142" r="1.6" fill="#a8a8a8" opacity="0.64"/>
    <circle cx="233" cy="138" r="2.1" fill="#d0d0d0" opacity="0.76"/>
    <circle cx="247" cy="136" r="2.4" fill="#f0f0f0" opacity="0.87"/>
    <circle cx="261" cy="135" r="2.3" fill="#f8f8f8" opacity="0.87"/>
    <circle cx="275" cy="135" r="2.1" fill="#e8e8e8" opacity="0.83"/>
    <circle cx="289" cy="137" r="1.8" fill="#c8c8c8" opacity="0.74"/>
    <circle cx="303" cy="140" r="1.5" fill="#a8a8a8" opacity="0.62"/>
    <circle cx="317" cy="146" r="1.1" fill="#888888" opacity="0.47"/>
    <circle cx="219" cy="155" r="1.6" fill="#a8a8a8" opacity="0.62"/>
    <circle cx="233" cy="151" r="2.0" fill="#c8c8c8" opacity="0.74"/>
    <circle cx="247" cy="149" r="2.3" fill="#e8e8e8" opacity="0.84"/>
    <circle cx="261" cy="148" r="2.2" fill="#f8f8f8" opacity="0.84"/>
    <circle cx="275" cy="148" r="2.0" fill="#e0e0e0" opacity="0.79"/>
    <circle cx="289" cy="150" r="1.7" fill="#c0c0c0" opacity="0.71"/>
    <circle cx="303" cy="153" r="1.4" fill="#a0a0a0" opacity="0.59"/>
    <circle cx="220" cy="168" r="1.5" fill="#a0a0a0" opacity="0.58"/>
    <circle cx="234" cy="164" r="1.9" fill="#c0c0c0" opacity="0.70"/>
    <circle cx="248" cy="162" r="2.2" fill="#e0e0e0" opacity="0.80"/>
    <circle cx="262" cy="161" r="2.1" fill="#f0f0f0" opacity="0.80"/>
    <circle cx="276" cy="161" r="1.9" fill="#d8d8d8" opacity="0.76"/>
    <circle cx="290" cy="163" r="1.6" fill="#b8b8b8" opacity="0.65"/>
    <circle cx="222" cy="181" r="1.4" fill="#909090" opacity="0.55"/>
    <circle cx="236" cy="177" r="1.8" fill="#b0b0b0" opacity="0.65"/>
    <circle cx="250" cy="175" r="2.0" fill="#d0d0d0" opacity="0.74"/>
    <circle cx="264" cy="174" r="1.9" fill="#e0e0e0" opacity="0.74"/>
    <circle cx="278" cy="174" r="1.7" fill="#c8c8c8" opacity="0.70"/>
    <circle cx="292" cy="176" r="1.4" fill="#a8a8a8" opacity="0.60"/>
    <circle cx="224" cy="194" r="1.3" fill="#808080" opacity="0.50"/>
    <circle cx="238" cy="190" r="1.7" fill="#a0a0a0" opacity="0.60"/>
    <circle cx="252" cy="188" r="1.9" fill="#c0c0c0" opacity="0.68"/>
    <circle cx="266" cy="187" r="1.8" fill="#d0d0d0" opacity="0.68"/>
    <circle cx="280" cy="188" r="1.6" fill="#b0b0b0" opacity="0.63"/>
    <circle cx="226" cy="207" r="1.2" fill="#707070" opacity="0.46"/>
    <circle cx="240" cy="203" r="1.6" fill="#909090" opacity="0.55"/>
    <circle cx="254" cy="201" r="1.8" fill="#b0b0b0" opacity="0.63"/>
    <circle cx="268" cy="200" r="1.7" fill="#c0c0c0" opacity="0.63"/>
    <circle cx="282" cy="201" r="1.5" fill="#a0a0a0" opacity="0.57"/>
    <circle cx="228" cy="220" r="1.2" fill="#606060" opacity="0.42"/>
    <circle cx="242" cy="216" r="1.5" fill="#808080" opacity="0.51"/>
    <circle cx="256" cy="214" r="1.7" fill="#a0a0a0" opacity="0.57"/>
    <circle cx="270" cy="213" r="1.6" fill="#b0b0b0" opacity="0.57"/>
    <circle cx="230" cy="233" r="1.1" fill="#585858" opacity="0.38"/>
    <circle cx="244" cy="229" r="1.4" fill="#787878" opacity="0.45"/>
    <circle cx="258" cy="228" r="1.6" fill="#989898" opacity="0.51"/>
    <circle cx="272" cy="227" r="1.5" fill="#a8a8a8" opacity="0.51"/>
    <circle cx="232" cy="246" r="1.0" fill="#505050" opacity="0.33"/>
    <circle cx="246" cy="242" r="1.3" fill="#686868" opacity="0.40"/>
    <circle cx="260" cy="241" r="1.4" fill="#888888" opacity="0.45"/>
    <circle cx="248" cy="255" r="1.1" fill="#585858" opacity="0.34"/>
    <circle cx="262" cy="254" r="1.2" fill="#707070" opacity="0.38"/>
    <circle cx="250" cy="268" r="0.9" fill="#484848" opacity="0.27"/>
    <circle cx="264" cy="267" r="1.0" fill="#606060" opacity="0.31"/>
    <circle cx="252" cy="280" r="0.8" fill="#404040" opacity="0.21"/>
    <circle cx="264" cy="280" r="0.9" fill="#505050" opacity="0.24"/>
  </g>

  <!-- Scattered outside particles - white dots -->
  <circle cx="218" cy="58" r="0.8" fill="#d0d0d0" opacity="0.38"/>
  <circle cx="310" cy="48" r="1.0" fill="#e8e8e8" opacity="0.33"/>
  <circle cx="326" cy="72" r="0.7" fill="#c0c0c0" opacity="0.28"/>
  <circle cx="334" cy="98" r="0.8" fill="#b0b0b0" opacity="0.23"/>
  <circle cx="296" cy="42" r="0.7" fill="#e0e0e0" opacity="0.28"/>
  <circle cx="278" cy="39" r="0.6" fill="#d0d0d0" opacity="0.24"/>
  <circle cx="258" cy="41" r="0.5" fill="#c0c0c0" opacity="0.20"/>
  <circle cx="200" cy="62" r="0.9" fill="#d8d8d8" opacity="0.30"/>
  <circle cx="202" cy="80" r="0.7" fill="#c0c0c0" opacity="0.24"/>
  <!-- Bright white accent dots -->
  <circle cx="315" cy="55" r="1.1" fill="#ffffff" opacity="0.50"/>
  <circle cx="340" cy="82" r="0.7" fill="#ffffff" opacity="0.36"/>

  <!-- INFINITY SYMBOL -->
  <path d="M138,278 C155,240 208,236 222,278 C236,320 290,316 306,278 C290,240 236,236 222,278 C208,320 155,316 138,278"
        fill="none" stroke="#808080" stroke-width="30" stroke-linecap="round" opacity="0.15" filter="url(#glow)"/>
  <path d="M138,278 C155,240 208,236 222,278 C236,320 290,316 306,278 C290,240 236,236 222,278 C208,320 155,316 138,278"
        fill="none" stroke="url(#inf)" stroke-width="22" stroke-linecap="round" stroke-linejoin="round" filter="url(#glow)"/>
  <path d="M143,277 C159,247 208,243 222,277 C236,311 285,312 301,277 C285,247 236,243 222,277 C208,311 159,311 143,277"
        fill="none" stroke="#ffffff" stroke-width="3.5" stroke-linecap="round" opacity="0.30"/>

  <!-- TEXT -->
  <text x="200" y="390" text-anchor="middle" font-family="Georgia,'Times New Roman',serif" font-size="44" font-weight="400" letter-spacing="1" fill="#d8d8d8">vspomin<tspan fill="#ffffff" font-style="italic" letter-spacing="0">.ai</tspan></text>
  <line x1="75" y1="406" x2="325" y2="406" stroke="#505050" stroke-width="0.8" opacity="0.65"/>
  <text x="200" y="430" text-anchor="middle" font-family="Georgia,'Times New Roman',serif" font-size="15" letter-spacing="4" fill="#888888" opacity="0.80">твоя память. навсегда.</text>
</svg>
